<svg width="9" height="8" viewBox="0 0 9 8" fill="none" xmlns="http://www.w3.org/2000/svg">
<path fill-rule="evenodd" clip-rule="evenodd" d="M0.000854339 3.50108C0.000854333 3.36847 0.0535328 3.24129 0.147301 3.14752C0.241069 3.05376 0.368246 3.00108 0.500854 3.00108L6.29385 3.00108L4.14685 0.855077C4.10037 0.808589 4.06349 0.7534 4.03833 0.692661C4.01317 0.631921 4.00022 0.566821 4.00022 0.501077C4.00022 0.435333 4.01317 0.370233 4.03833 0.309493C4.06349 0.248754 4.10037 0.193565 4.14685 0.147077C4.19334 0.100589 4.24853 0.0637124 4.30927 0.0385535C4.37001 0.0133946 4.43511 0.000445649 4.50085 0.000445646C4.5666 0.000445643 4.6317 0.0133946 4.69244 0.0385535C4.75318 0.0637124 4.80837 0.100589 4.85485 0.147077L7.85485 3.14708C7.90142 3.19352 7.93836 3.2487 7.96357 3.30944C7.98877 3.37019 8.00175 3.43531 8.00175 3.50108C8.00175 3.56684 7.98877 3.63197 7.96357 3.69271C7.93836 3.75346 7.90142 3.80863 7.85485 3.85508L4.85485 6.85508C4.80837 6.90156 4.75318 6.93844 4.69244 6.9636C4.6317 6.98876 4.5666 7.00171 4.50085 7.00171C4.43511 7.00171 4.37001 6.98876 4.30927 6.9636C4.24853 6.93844 4.19334 6.90157 4.14685 6.85508C4.05297 6.76119 4.00022 6.63385 4.00022 6.50108C4.00022 6.43533 4.01317 6.37023 4.03833 6.30949C4.06349 6.24875 4.10037 6.19356 4.14685 6.14708L6.29385 4.00108L0.500854 4.00108C0.368246 4.00108 0.241069 3.9484 0.147301 3.85463C0.0535329 3.76086 0.000854345 3.63369 0.000854339 3.50108Z" fill="#313131"/>
</svg>
