<svg width="17" height="16" viewBox="0 0 17 16" fill="none" xmlns="http://www.w3.org/2000/svg">
<path fill-rule="evenodd" clip-rule="evenodd" d="M0.364257 8.00004C0.364257 7.72654 0.472907 7.46423 0.666304 7.27083C0.859701 7.07744 1.122 6.96879 1.39551 6.96879L13.3436 6.96879L8.91538 2.54266C8.8195 2.44678 8.74344 2.33296 8.69155 2.20768C8.63966 2.08241 8.61295 1.94814 8.61295 1.81254C8.61295 1.67694 8.63966 1.54267 8.69155 1.4174C8.74344 1.29212 8.8195 1.1783 8.91538 1.08241C9.01126 0.986533 9.12509 0.910475 9.25037 0.858585C9.37564 0.806694 9.50991 0.779987 9.64551 0.779987C9.7811 0.779987 9.91537 0.806694 10.0406 0.858585C10.1659 0.910475 10.2798 0.986533 10.3756 1.08241L16.5631 7.26991C16.6592 7.36571 16.7354 7.47951 16.7874 7.6048C16.8393 7.73008 16.8661 7.86439 16.8661 8.00004C16.8661 8.13568 16.8393 8.27 16.7874 8.39528C16.7354 8.52057 16.6592 8.63437 16.5631 8.73016L10.3756 14.9177C10.2798 15.0135 10.1659 15.0896 10.0406 15.1415C9.91537 15.1934 9.7811 15.2201 9.64551 15.2201C9.50991 15.2201 9.37564 15.1934 9.25037 15.1415C9.12509 15.0896 9.01126 15.0135 8.91538 14.9177C8.72174 14.724 8.61296 14.4614 8.61296 14.1875C8.61296 14.0519 8.63966 13.9177 8.69155 13.7924C8.74344 13.6671 8.8195 13.5533 8.91538 13.4574L13.3436 9.03129L1.39551 9.03129C1.122 9.03129 0.859701 8.92264 0.666304 8.72924C0.472907 8.53585 0.364258 8.27354 0.364257 8.00004Z" fill="black"/>
</svg>
