<svg width="16" height="17" viewBox="0 0 16 17" fill="none" xmlns="http://www.w3.org/2000/svg">
<path d="M2 0.0355225C1.46957 0.0355225 0.960859 0.246236 0.585786 0.621309C0.210714 0.996382 0 1.50509 0 2.03552L0 14.0355C0 14.566 0.210714 15.0747 0.585786 15.4497C0.960859 15.8248 1.46957 16.0355 2 16.0355H14C14.5304 16.0355 15.0391 15.8248 15.4142 15.4497C15.7893 15.0747 16 14.566 16 14.0355V2.03552C16 1.50509 15.7893 0.996382 15.4142 0.621309C15.0391 0.246236 14.5304 0.0355225 14 0.0355225L2 0.0355225ZM12.03 5.00552C12.1689 5.14427 12.2479 5.33196 12.2499 5.52828C12.252 5.72459 12.177 5.91389 12.041 6.05552L8.049 11.0455C7.98039 11.1194 7.89758 11.1787 7.80553 11.2199C7.71348 11.2611 7.61407 11.2832 7.51325 11.2851C7.41243 11.287 7.31227 11.2685 7.21876 11.2308C7.12524 11.193 7.0403 11.1368 6.969 11.0655L4.324 8.41952C4.25031 8.35086 4.19121 8.26806 4.15022 8.17606C4.10923 8.08406 4.08718 7.98475 4.08541 7.88405C4.08363 7.78334 4.10216 7.68331 4.13988 7.58992C4.1776 7.49654 4.23374 7.4117 4.30496 7.34048C4.37618 7.26927 4.46101 7.21312 4.5544 7.1754C4.64779 7.13768 4.74782 7.11915 4.84852 7.12093C4.94923 7.12271 5.04854 7.14475 5.14054 7.18574C5.23254 7.22673 5.31534 7.28584 5.384 7.35952L7.478 9.45252L10.951 5.02752C11.0195 4.95349 11.1022 4.89403 11.1942 4.85269C11.2861 4.81135 11.3855 4.78899 11.4863 4.78693C11.5871 4.78488 11.6873 4.80318 11.7809 4.84074C11.8745 4.8783 11.9596 4.93434 12.031 5.00552H12.03Z" fill="#E83445"/>
</svg>
