<svg width="78" height="32" viewBox="0 0 78 32" fill="none" xmlns="http://www.w3.org/2000/svg">
<path fill-rule="evenodd" clip-rule="evenodd" d="M5.36368 0.000246239V0H3.0921V0.000246239H0V1.6861H3.0921L3.0921 31.9999H5.36368L5.36368 1.6861H8.45668V0.000246239H5.36368ZM13.7282 1.68585L13.7282 24.8027H20.0887V1.68585H13.7282ZM20.0887 0H20.0891H22.3603V24.8027H22.3606V26.4886H13.7282V31.9999H11.4567V0H11.6324H13.7282H20.0887ZM27.6323 0L27.6323 15.1572H30.3424V0H31.3782H32.614H38.8965H39.995H41.1681L41.1681 31.9999H38.8965V31.9998H32.614V31.9999H30.3424V16.8431H27.6323V31.9999H25.3607L25.3607 0H27.6323ZM32.614 1.68585H38.8965L38.8965 30.314H32.614V1.68585ZM68.8187 1.68585L68.8187 30.314H75.1639L75.1639 1.68585H68.8187ZM75.1639 0H75.5785H77.4355V31.9999H75.1639V31.9998H68.8187V31.9999H66.5471V0H67.5823H68.8187H75.1639ZM46.4395 1.68585V31.9999H44.168V0H45.2139H46.4395H52.7221H54.9936H61.2756H62.9491H63.5472V31.9999H61.2756L61.2756 1.68585H54.9936V31.9999H52.7221L52.7221 1.68585H46.4395Z" fill="#E83445"/>
</svg>
